<svg viewBox="0 0 680 680" xmlns="http://www.w3.org/2000/svg" style="width:680px;height:680px">
  <path fill="#fff" d="M140 80h400a60 60 0 0160 60v400a60 60 0 01-60 60H140a60 60 0 01-60-60V140a60 60 0 0160-60z" />
  <path d="M140 120h160a20 20 0 0120 20v160a20 20 0 01-20 20H140a20 20 0 01-20-20V140a20 20 0 0120-20z" />
  <path fill="#d81b60"
    d="M380 120h160a20 20 0 0120 20v160a20 20 0 01-20 20H380a20 20 0 01-20-20V140a20 20 0 0120-20z" />
  <path
    d="M140 360h160a20 20 0 0120 20v160a20 20 0 01-20 20H140a20 20 0 01-20-20V380a20 20 0 0120-20zM380 360h160a20 20 0 0120 20v160a20 20 0 01-20 20H380a20 20 0 01-20-20V380a20 20 0 0120-20z" />
</svg>